<svg xmlns="http://www.w3.org/2000/svg" xmlns:xlink="http://www.w3.org/1999/xlink" width="706" height="131" viewBox="0 0 706 131"><defs><clipPath id="b"><rect width="706" height="131"/></clipPath></defs><g id="a" clip-path="url(#b)"><g transform="translate(-419 -566)"><g transform="translate(-356 218.542)"><path d="M387.127,557.058c-.242-.239-.471-.466-.679-.675-5.7-5.732-2.708-11.635.43-14.631.131-.123.26-.245.391-.36,3.141-2.756,23.8-21.913,25.357-23.354l-11.285-.011s-12.358,11.46-19.982,18.459c-8.245-7.725-20.047-18.456-20.047-18.456l-11.982,0c.316.289,19.679,17.815,25.924,24.032.108.105.219.216.319.316,5.545,5.576,2.865,11.313-.175,14.379-.214.216-.43.422-.646.612-3.267,2.863-25.458,23.453-25.458,23.453l12.006.018s12.356-11.457,19.977-18.459c8.248,7.727,20.124,18.361,20.124,18.361l11.308,0s-18.922-17.125-25.581-23.689" transform="translate(607.111 -121.399)" fill="#badd16" fill-rule="evenodd"/><path d="M364.8,542.065c-6.247-6.216-25.607-23.743-25.926-24.032l-.016-.013-18.464-.051,33.749,31.015-35.427,31.811,20.15.01s22.166-20.57,25.429-23.431c.216-.19.432-.4.648-.613,3.038-3.065,5.715-8.8.173-14.379-.1-.1-.211-.209-.317-.317" transform="translate(617.539 -121.379)" fill="#1e72af" fill-rule="evenodd"/><path d="M430.146,518.043l-.1.1c-1.555,1.441-22.2,20.574-25.337,23.331-.129.113-.263.234-.391.358-3.138,3-6.132,8.9-.43,14.631.208.208.438.438.679.674,6.659,6.564,25.581,23.69,25.581,23.69l7,.02,11.465.031-33.749-31.018,35.4-31.813H430.146" transform="translate(589.59 -121.404)" fill="#1e72af" fill-rule="evenodd"/></g><text transform="translate(419 676)" fill="#1e72af" font-size="118" font-family="Verdana-Bold, Verdana" font-weight="700"><tspan x="0" y="0">de</tspan></text><text transform="translate(689 676)" fill="#1e72af" font-size="118" font-family="Verdana-Bold, Verdana" font-weight="700"><tspan x="0" y="0">tra</tspan></text><text transform="translate(880 676)" fill="#badd16" font-size="118" font-family="Verdana-Bold, Verdana" font-weight="700"><tspan x="0" y="0">Flix</tspan></text></g></g></svg>